<?xml version="1.0" encoding="UTF-8" standalone="no"?>
<!DOCTYPE svg PUBLIC "-//W3C//DTD SVG 1.1//EN" "http://www.w3.org/Graphics/SVG/1.1/DTD/svg11.dtd">
<svg width="100%" height="100%" viewBox="0 0 941 607" version="1.1" xmlns="http://www.w3.org/2000/svg" xmlns:xlink="http://www.w3.org/1999/xlink" xml:space="preserve" xmlns:serif="http://www.serif.com/" style="fill-rule:evenodd;clip-rule:evenodd;stroke-linejoin:round;stroke-miterlimit:2;">
    <g transform="matrix(1,0,0,1,-851.032,-793.122)">
        <path d="M1079.54,1345.75L1095.16,1330.34L1095.16,1116.56L1067.46,1087.47L1293.1,1087.47L1293.1,1125.79C1345.28,1088.39 1363.74,1087.93 1363.74,1087.93L1542.23,1087.93L1542.23,1114.25C1618.03,1051.46 1710.83,1109.63 1710.83,1109.63L1710.83,1176.12C1619.6,1097.17 1572.78,1188.13 1572.78,1188.13L1710.83,1188.13L1710.83,1246.77L1572.5,1246.77C1629.01,1336.34 1710.97,1259.96 1710.97,1259.96L1710.97,1322.46C1680.38,1357.09 1600.73,1349.01 1600.73,1349.01C1551.09,1341.5 1524.53,1303.41 1524.53,1303.41C1476.05,1240.5 1513.17,1149.98 1513.17,1149.98L1489.29,1149.98L1489.29,1399.68L1422.06,1345.38L1422.06,1149.61L1368.51,1149.61L1368.51,1346.12L1306.45,1346.12L1306.45,1313.25C1270.25,1315.46 1258.32,1346.49 1258.32,1346.49L1195.52,1346.49C1195.52,1346.49 1193.42,1314.73 1195.29,1299.02C1197.38,1281.41 1208.08,1240.85 1208.08,1240.85L1157.85,1240.85L1157.85,1330.98L1171.14,1345.75L1079.54,1345.75ZM1267.54,1263.08C1267.54,1263.08 1288.58,1255.22 1304.74,1255.22L1305.68,1202.37C1302.93,1201.45 1267.39,1232.09 1267.54,1263.08ZM1158.11,1145.8L1158.11,1177.66L1237.53,1177.66C1237.53,1177.66 1244.45,1163.81 1267.54,1145.34L1158.11,1145.8Z" style="fill:white;"/>
        <path d="M994.385,1255.22L1012.91,1255.22L1008.18,1232.71L1008.18,1216.07L1034.65,1215.99L1036.54,1207.3L1008.37,1207.37L1008.37,1173.71L1035.23,1173.71L1037.12,1164.91L998.538,1164.91L998.538,1232.86L994.385,1255.22Z" style="fill:white;"/>
        <g transform="matrix(0.905556,0,0,0.905556,82.5769,105.336)">
            <path d="M939.854,1170.08C967.376,1170.08 989.721,1192.43 989.721,1219.95C989.721,1247.47 967.376,1269.82 939.854,1269.82C912.332,1269.82 889.988,1247.47 889.988,1219.95C889.988,1192.43 912.332,1170.08 939.854,1170.08ZM939.854,1180.02C917.815,1180.02 899.922,1197.91 899.922,1219.95C899.922,1241.99 917.815,1259.88 939.854,1259.88C961.894,1259.88 979.787,1241.99 979.787,1219.95C979.787,1197.91 961.894,1180.02 939.854,1180.02Z" style="fill:white;"/>
        </g>
        <path d="M1298.05,1082.17C1299.26,1079.53 1271.78,892.098 1471.2,828.971L1471.2,1082.17L1408.57,1082.17L1408.57,1049.09C1408.57,1049.09 1373.21,1051.04 1363.84,1082.17L1298.05,1082.17ZM1371.09,998.202C1371.09,998.202 1385.49,990.815 1407.65,989.707L1407.65,937.647C1407.65,937.647 1377.73,962.742 1371.09,998.202Z" style="fill:white;"/>
        <path d="M1479.41,828.971C1575.9,805.528 1631.55,877.348 1631.55,877.348C1650.94,840.41 1661.78,836.255 1661.78,836.255C1700.57,804.857 1749.05,828.971 1749.05,828.971C1781.83,848.007 1788.76,873.193 1788.76,873.193C1792.46,885.198 1791.37,897.203 1788.76,909.207L1727.35,909.207C1730.28,901.847 1730.47,894.028 1727.35,885.659C1709.8,871.808 1698.72,881.966 1698.72,881.966C1679.33,899.973 1713.5,920.289 1713.5,920.289C1748.13,933.679 1766.13,952.325 1766.13,952.325C1822,1008.83 1767.06,1062.04 1767.06,1062.04C1705.65,1110.06 1645.72,1059.27 1645.72,1059.27L1645.72,1082.17C1567.23,1066.75 1538.05,1030.64 1538.05,1030.64L1538.05,1082.17L1479.41,1082.17L1479.41,828.971ZM1629.66,1018.55L1629.66,995.799L1691.42,995.799L1691.42,1019.44C1691.42,1019.44 1710.99,1038.35 1729.55,1014.71C1729.55,1014.71 1734.81,1001.41 1724.46,994.912C1724.46,994.912 1653.7,960.759 1637.74,937.647C1637.74,937.647 1638.07,967.135 1594.3,992.548C1594.3,992.548 1604.78,1016.19 1629.66,1018.55ZM1542.62,885.015L1542.62,951.405C1542.62,951.405 1558.19,951.071 1574.34,931.913C1579.81,923.206 1579.25,910.782 1574.36,902.862C1574.36,902.862 1564.49,887.084 1542.62,885.015Z" style="fill:white;"/>
        <path d="M1186.25,809.859L1186.25,1082.17L1287.83,1082.17L1287.83,1024.56L1245.12,1024.56L1245.12,808.128L1254.93,793.122L1176.56,793.122L1186.25,809.859Z" style="fill:white;"/>
        <path d="M1070.94,879.823L1070.94,1082.17L1176.56,1082.17L1176.56,1024.66L1129.81,1024.66L1129.81,822.478L1070.94,879.823Z" style="fill:white;"/>
        <path d="M878.447,848.371L851.032,826.006C1013.72,805.084 1033.1,884.071 1033.1,884.071L1061.22,884.17L1061.69,1082.12L999.651,1082.12L999.35,990.883C982.099,1005.44 940.532,1010.58 941.161,1011.84L940.809,1065.88L954.095,1081.8L865.22,1082.17L877.674,1066.25L878.447,848.371ZM941.197,884.476L940.827,952.325C940.827,952.325 967.196,948.379 979.016,927.325C982.101,919.858 982.063,912.721 979.016,905.9C979.016,905.9 969.866,888.17 941.197,884.476Z" style="fill:white;"/>
    </g>
</svg>
